<?xml version="1.0" encoding="UTF-8"?><svg id="Layer_2" xmlns="http://www.w3.org/2000/svg" viewBox="0 0 241.99 299.54"><defs><style>.cls-1{fill:#fff;stroke-width:0px;}</style></defs><g id="Layer_1-2"><path class="cls-1" d="M0,229.68c0-12.1,10.08-21.92,22.58-21.92s22.64,9.82,22.64,21.92-10.08,21.93-22.64,21.93S0,241.78,0,229.68M38.64,229.68c0-8.65-7.01-15.79-16.06-15.79s-16,7.13-16,15.79,7,15.73,16,15.73,16.06-7.07,16.06-15.73"/><path class="cls-1" d="M58.04,229.68c0-12.45,10.02-21.92,22.64-21.92,8.33,0,15.58,4.33,19.5,10.76l-5.74,3.45c-2.72-4.91-7.55-8.07-13.77-8.07-9.18,0-16.06,7.02-16.06,15.79s6.88,15.67,16,15.67c6.82,0,11.71-3.62,14.25-8.77l5.92,3.04c-3.8,7.13-11.11,11.99-20.11,11.99-13.04,0-22.64-9.82-22.64-21.93"/><polygon class="cls-1" points="113.54 208.34 142.4 208.34 142.4 214.42 120 214.42 120 226.58 142.4 226.58 142.4 232.66 120 232.66 120 244.88 142.4 244.88 142.4 251.02 113.54 251.02 113.54 208.34"/><path class="cls-1" d="M170.73,208.34h6.64l17.03,42.68h-6.82l-3.56-9.12h-19.92l-3.5,9.12h-6.88l17.03-42.68ZM166.44,235.82h15.22l-7.61-19.53-7.61,19.53Z"/><polygon class="cls-1" points="206.3 208.34 213.49 208.34 235.59 240.73 235.59 208.34 241.99 208.34 241.99 251.02 235.29 251.02 212.76 218.04 212.76 251.02 206.3 251.02 206.3 208.34"/><polygon class="cls-1" points="0 268.01 5.24 268.01 21.36 291.62 21.36 268.01 26.02 268.01 26.02 299.12 21.14 299.12 4.71 275.09 4.71 299.12 0 299.12 0 268.01"/><polygon class="cls-1" points="35.62 268.01 56.67 268.01 56.67 272.44 40.33 272.44 40.33 281.31 56.67 281.31 56.67 285.74 40.33 285.74 40.33 294.64 56.67 294.64 56.67 299.12 35.62 299.12 35.62 268.01"/><polygon class="cls-1" points="73.44 272.27 64.32 272.27 64.32 268.01 87.31 268.01 87.31 272.27 78.19 272.27 78.19 299.12 73.44 299.12 73.44 272.27"/><polygon class="cls-1" points="93.96 268.01 98.98 268.01 105.71 292.05 113.64 268.01 118.04 268.01 125.84 292.09 132.88 268.01 137.73 268.01 128.26 299.12 123.59 299.12 115.8 274.91 107.83 299.12 103.03 299.12 93.96 268.01"/><path class="cls-1" d="M142.87,283.56c0-8.82,7.35-15.98,16.47-15.98s16.51,7.16,16.51,15.98-7.36,15.98-16.51,15.98-16.47-7.16-16.47-15.98M171.06,283.56c0-6.31-5.11-11.5-11.72-11.5s-11.67,5.2-11.67,11.5,5.11,11.46,11.67,11.46,11.72-5.16,11.72-11.46"/><path class="cls-1" d="M184.39,268.01h12.51c7,0,11.54,4.39,11.54,10.4,0,3.88-2.25,7.58-6.21,9.2l6.83,11.5h-5.46l-5.81-10.27h-8.63v10.27h-4.75v-31.11ZM189.15,272.32v12.27h7.35c4.89,0,7.14-3.03,7.14-6.31,0-3.54-2.42-5.97-7.14-5.97h-7.35Z"/><polygon class="cls-1" points="227.68 283.05 221.64 289.96 221.64 299.12 216.89 299.12 216.89 268.01 221.64 268.01 221.64 284.12 235.51 268.01 241.41 268.01 231.2 279.73 241.99 299.12 236.48 299.12 227.68 283.05"/><path class="cls-1" d="M117.59,103.67h-6.56v24.96c.28,4.23-1.16,8.27-4.06,11.36-3.02,3.22-7.35,5.07-11.87,5.07h-17.26c-5.37,0-9.75,4.37-9.75,9.75v16.61h6.56v-16.61c0-1.76,1.43-3.19,3.19-3.19h17.26c6.33,0,12.4-2.6,16.65-7.15,4.15-4.43,6.22-10.21,5.83-16.06v-24.75ZM55.04,111.39c.06,7.15,5.94,13.05,13.16,13.17h22.28v-6.75h-22.23c-3.54-.05-6.43-2.96-6.46-6.44v-3.51c0-6.44-5.24-11.68-11.68-11.68h-20.04v6.75h20.04c2.72,0,4.93,2.21,4.93,4.93v3.54ZM30.06,116.67h6.87v-6.87h-6.87v6.87ZM40.37,155.36h6.87v-6.87h-6.87v6.87ZM68.53,94.04v7.95c0,4.89,3.97,8.86,8.86,8.86h13.11v-6.75h-13.11c-1.16,0-2.11-.95-2.11-2.11v-7.95c0-9.69-7.88-17.57-17.57-17.57h-7.02v6.75h7.02c5.97,0,10.82,4.85,10.82,10.82M166.71,102.17c0,1.07-.87,1.93-1.93,1.93h-13.29v6.75h13.29c4.79,0,8.68-3.9,8.68-8.68v-8.13c0-5.97,4.86-10.82,10.82-10.82h13.9v-6.75h-13.9c-9.69,0-17.57,7.88-17.57,17.57v8.13ZM205.05,171.42h6.87v-6.87h-6.87v6.87ZM117.56,83.28h6.87v-6.87h-6.87v6.87ZM179.74,107.85v3.49c-.02,3.45-2.78,6.41-5.97,6.46h-22.28v6.75h22.34c6.93-.12,12.61-6.03,12.66-13.19v-3.51c0-2.72,2.21-4.93,4.93-4.93h13v-6.75h-13c-6.44,0-11.68,5.24-11.68,11.68M205.05,83.28h6.87v-6.87h-6.87v6.87ZM166.3,145.07h-17.26c-9.01,0-16.73-7.24-18.02-16.86v-24.54h-6.56v24.75l.03.41c1.62,13,12.18,22.8,24.55,22.8h17.26c1.76,0,3.2,1.43,3.2,3.2v16.6h6.56v-16.6c0-5.38-4.38-9.75-9.75-9.75M169.35,131.34h-19.28c-2.95,0-5.36-2.4-5.36-5.37l-.13-35.62c0-.9.27-1.77.79-2.51l17.56-24.9c6.08-8.18,8.57-21.03-.32-29.92l-26.19-26.24c-9-9.02-21.59-9.04-30.62-.05l-26.38,26.29c-7.58,7.58-7.74,19-.37,29.86l17.61,24.96c.52.74.79,1.61.79,2.51l-.13,35.77c0,2.95-2.4,5.36-5.36,5.36h-16.1c-11.81,0-21.43,9.61-21.43,21.43v2.43h6.75v-2.43c0-8.09,6.58-14.67,14.67-14.67h16.1c6.68,0,12.11-5.43,12.11-12.1l.13-35.76c0-2.31-.69-4.53-2.03-6.42l-17.58-24.91c-2.05-3.02-8.15-13.5-.41-21.24l26.37-26.29c6.41-6.38,14.68-6.37,21.08.04l26.19,26.25c6.06,6.06,4.08,15.2-.37,21.19l-17.61,24.97c-1.33,1.89-2.03,4.11-2.02,6.42l.13,35.61c0,6.68,5.43,12.11,12.11,12.11h19.28c7.63,0,13.84,6.21,13.84,13.84v3.27h6.75v-3.27c0-11.35-9.23-20.59-20.59-20.59"/></g></svg>