<svg width="1209" height="793" viewBox="0 0 1209 793" fill="none" xmlns="http://www.w3.org/2000/svg">
<g opacity="0.6">
<path d="M1052.73 704.718C1051.71 699.85 1048.87 695.524 1044.77 692.579C1040.67 689.634 1035.59 688.28 1030.52 688.78C1025.46 689.279 1020.76 691.596 1017.34 695.282C1013.93 698.967 1012.04 703.759 1012.04 708.728C1012.04 713.696 1013.93 718.488 1017.34 722.173C1020.76 725.859 1025.46 728.176 1030.52 728.676C1035.59 729.175 1040.67 727.821 1044.77 724.876C1048.87 721.932 1051.71 717.606 1052.73 712.738H1234V704.718H1052.73ZM131.972 319.765C130.953 314.897 128.118 310.571 124.016 307.626C119.913 304.682 114.836 303.328 109.769 303.827C104.701 304.326 100.005 306.644 96.5887 310.329C93.1731 314.015 91.282 318.807 91.282 323.775C91.282 328.744 93.1731 333.536 96.5887 337.221C100.005 340.907 104.701 343.224 109.769 343.723C114.836 344.223 119.913 342.869 124.016 339.924C128.118 336.979 130.953 332.653 131.972 327.785L486.298 327.785C487.317 332.653 490.152 336.979 494.254 339.924C498.356 342.869 503.433 344.223 508.501 343.723C513.568 343.224 518.265 340.907 521.681 337.221C525.097 333.536 526.988 328.744 526.988 323.775C526.988 318.807 525.097 314.015 521.681 310.329C518.265 306.644 513.568 304.326 508.501 303.827C503.433 303.328 498.356 304.682 494.254 307.626C490.152 310.571 487.317 314.897 486.298 319.765L131.972 319.765ZM436.561 689.079C431.57 690.073 427.136 692.839 424.117 696.841C421.099 700.842 419.711 705.795 420.223 710.739C420.735 715.682 423.11 720.264 426.888 723.596C430.666 726.928 435.578 728.773 440.671 728.773C445.764 728.773 450.676 726.928 454.454 723.596C458.232 720.264 460.608 715.682 461.12 710.739C461.632 705.795 460.244 700.842 457.225 696.841C454.206 692.839 449.772 690.073 444.782 689.079V471.741C449.772 470.748 454.206 467.982 457.225 463.98C460.244 459.978 461.632 455.025 461.12 450.082C460.608 445.138 458.232 440.556 454.454 437.224C450.676 433.892 445.764 432.047 440.671 432.047C435.578 432.047 430.666 433.892 426.888 437.224C423.11 440.556 420.735 445.138 420.223 450.082C419.711 455.025 421.099 459.978 424.117 463.98C427.136 467.982 431.57 470.748 436.561 471.741V689.079ZM699.633 343.424V640.559H633.865V689.079C628.875 690.073 624.441 692.839 621.422 696.841C618.403 700.842 617.015 705.795 617.527 710.739C618.039 715.682 620.415 720.264 624.193 723.596C627.971 726.928 632.883 728.773 637.976 728.773C643.069 728.773 647.981 726.928 651.759 723.596C655.537 720.264 657.912 715.682 658.424 710.739C658.936 705.795 657.548 700.842 654.53 696.841C651.511 692.839 647.077 690.073 642.086 689.079V648.579H707.854V343.424C712.845 342.43 717.279 339.664 720.298 335.662C723.316 331.66 724.704 326.708 724.192 321.764C723.68 316.821 721.305 312.239 717.527 308.907C713.749 305.574 708.837 303.73 703.744 303.73C698.651 303.73 693.739 305.574 689.961 308.907C686.183 312.239 683.807 316.821 683.295 321.764C682.784 326.708 684.172 331.66 687.19 335.662C690.209 339.664 694.643 342.43 699.633 343.424ZM723.885 255.606C722.867 250.738 720.032 246.412 715.929 243.468C711.827 240.523 706.75 239.169 701.682 239.668C696.615 240.168 691.918 242.485 688.502 246.17C685.087 249.856 683.196 254.648 683.196 259.616C683.196 264.585 685.087 269.377 688.502 273.062C691.918 276.748 696.615 279.065 701.682 279.564C706.75 280.064 711.827 278.71 715.929 275.765C720.032 272.82 722.867 268.495 723.885 263.626H765.402V456.103H880.907C881.926 460.971 884.761 465.297 888.863 468.241C892.966 471.186 898.043 472.54 903.11 472.041C908.177 471.541 912.874 469.224 916.29 465.539C919.706 461.853 921.597 457.061 921.597 452.093C921.597 447.124 919.706 442.333 916.29 438.647C912.874 434.961 908.177 432.644 903.11 432.145C898.043 431.645 892.966 432.999 888.863 435.944C884.761 438.889 881.926 443.215 880.907 448.083H773.623V255.606H723.885ZM815.139 520.261C816.157 525.13 818.993 529.455 823.095 532.4C827.197 535.345 832.274 536.699 837.342 536.2C842.409 535.7 847.106 533.383 850.522 529.697C853.938 526.012 855.829 521.22 855.829 516.251C855.829 511.283 853.938 506.491 850.522 502.806C847.106 499.12 842.409 496.803 837.342 496.303C832.274 495.804 827.197 497.158 823.095 500.103C818.993 503.048 816.157 507.373 815.139 512.242H765.402V704.718H723.885C722.867 699.85 720.032 695.524 715.929 692.579C711.827 689.634 706.75 688.28 701.682 688.78C696.615 689.279 691.918 691.596 688.502 695.282C685.087 698.967 683.196 703.759 683.196 708.728C683.196 713.696 685.087 718.488 688.502 722.173C691.918 725.859 696.615 728.176 701.682 728.676C706.75 729.175 711.827 727.821 715.929 724.876C720.032 721.932 722.867 717.606 723.885 712.738H773.623V520.261H815.139ZM157.457 391.944C158.476 396.812 161.311 401.138 165.413 404.083C169.516 407.028 174.593 408.382 179.66 407.882C184.727 407.383 189.424 405.066 192.84 401.38C196.256 397.694 198.147 392.903 198.147 387.934C198.147 382.965 196.256 378.174 192.84 374.488C189.424 370.803 184.727 368.485 179.66 367.986C174.593 367.487 169.516 368.841 165.413 371.785C161.311 374.73 158.476 379.056 157.457 383.924H107.72V560.762C102.729 561.755 98.295 564.521 95.2764 568.523C92.2577 572.525 90.87 577.478 91.382 582.421C91.8938 587.365 94.269 591.947 98.0472 595.279C101.825 598.611 106.737 600.456 111.83 600.456C116.923 600.456 121.835 598.611 125.614 595.279C129.392 591.947 131.767 587.365 132.279 582.421C132.791 577.478 131.403 572.525 128.384 568.523C125.365 564.521 120.931 561.755 115.941 560.762V391.944H157.457ZM420.53 776.896C421.548 781.765 424.384 786.09 428.486 789.035C432.588 791.98 437.665 793.334 442.733 792.834C447.8 792.335 452.497 790.018 455.913 786.332C459.328 782.647 461.22 777.855 461.22 772.886C461.22 767.918 459.328 763.126 455.913 759.441C452.497 755.755 447.8 753.438 442.733 752.938C437.665 752.439 432.588 753.793 428.486 756.738C424.384 759.682 421.548 764.008 420.53 768.876H379.014V448.083H313.245V391.944L486.298 391.944C487.317 396.812 490.152 401.138 494.254 404.083C498.356 407.028 503.433 408.382 508.501 407.882C513.568 407.383 518.265 405.066 521.681 401.38C525.097 397.694 526.988 392.903 526.988 387.934C526.988 382.965 525.097 378.174 521.681 374.488C518.265 370.803 513.568 368.485 508.501 367.986C503.433 367.487 498.356 368.841 494.254 371.785C490.152 374.73 487.317 379.056 486.298 383.924L305.024 383.924V456.103H370.792V776.896H420.53ZM831.17 215.106V391.944H1012.44C1013.46 396.812 1016.3 401.138 1020.4 404.083C1024.5 407.028 1029.58 408.382 1034.65 407.882C1039.71 407.383 1044.41 405.066 1047.83 401.38C1051.24 397.694 1053.13 392.903 1053.13 387.934C1053.13 382.965 1051.24 378.174 1047.83 374.488C1044.41 370.803 1039.71 368.485 1034.65 367.986C1029.58 367.487 1024.5 368.841 1020.4 371.785C1016.3 374.73 1013.46 379.056 1012.44 383.924H839.391V215.106C844.381 214.113 848.816 211.347 851.834 207.345C854.853 203.343 856.241 198.39 855.729 193.447C855.217 188.503 852.842 183.921 849.064 180.589C845.285 177.257 840.374 175.412 835.28 175.412C830.187 175.412 825.275 177.257 821.497 180.589C817.719 183.921 815.344 188.503 814.832 193.447C814.32 198.39 815.708 203.343 818.726 207.345C821.745 211.347 826.179 214.113 831.17 215.106ZM568.097 689.079C563.107 690.073 558.672 692.839 555.654 696.841C552.635 700.842 551.247 705.795 551.759 710.739C552.271 715.682 554.646 720.264 558.424 723.596C562.203 726.928 567.114 728.773 572.208 728.773C577.301 728.773 582.213 726.928 585.991 723.596C589.769 720.264 592.144 715.682 592.656 710.739C593.168 705.795 591.78 700.842 588.761 696.841C585.743 692.839 581.308 690.073 576.318 689.079V290.052L475.241 191.448L0 191.448C0 191.831 0 187.898 0 191.831C0 192.968 3.94983 193.6 0 192.814C0 195.651 0 191.831 0 194.78C0 197.248 0 194.256 0 196.747C0 194.78 0 199.238 0 196.747C0 199.048 0 195.566 0 197.73C0 198.713 0 196.777 0 198.713C0 201.434 0 199.696 0 199.468L471.87 199.468L568.097 293.34V689.079ZM1028.47 22.6302V197.102L1225.78 389.578V640.559H1118.49C1117.48 635.691 1114.64 631.365 1110.54 628.42C1106.44 625.475 1101.36 624.121 1096.29 624.621C1091.22 625.12 1086.53 627.437 1083.11 631.123C1079.7 634.809 1077.8 639.6 1077.8 644.569C1077.8 649.538 1079.7 654.329 1083.11 658.015C1086.53 661.701 1091.22 664.018 1096.29 664.517C1101.36 665.016 1106.44 663.662 1110.54 660.718C1114.64 657.773 1117.48 653.447 1118.49 648.579H1234V386.29L1036.7 193.814V22.6302C1041.69 21.6364 1046.12 18.8705 1049.14 14.8686C1052.16 10.8667 1053.55 5.91391 1053.03 0.970469C1052.52 -3.97297 1050.15 -8.55489 1046.37 -11.887C1042.59 -15.2191 1037.68 -17.064 1032.58 -17.064C1027.49 -17.064 1022.58 -15.2191 1018.8 -11.887C1015.02 -8.55489 1012.65 -3.97297 1012.14 0.970469C1011.62 5.91391 1013.01 10.8667 1016.03 14.8686C1019.05 18.8705 1023.48 21.6364 1028.47 22.6302ZM1094.24 86.7888V165.022L1234 301.36V290.052L1102.46 161.734V86.7888C1107.45 85.7951 1111.89 83.0292 1114.91 79.0273C1117.93 75.0254 1119.31 70.0726 1118.8 65.1292C1118.29 60.1857 1115.91 55.6038 1112.14 52.2717C1108.36 48.9396 1103.45 47.0948 1098.35 47.0948C1093.26 47.0948 1088.35 48.9396 1084.57 52.2717C1080.79 55.6038 1078.42 60.1857 1077.9 65.1292C1077.39 70.0726 1078.78 75.0254 1081.8 79.0273C1084.82 83.0292 1089.25 85.7951 1094.24 86.7888ZM1012.44 776.896C1013.46 781.765 1016.3 786.09 1020.4 789.035C1024.5 791.98 1029.58 793.334 1034.65 792.834C1039.71 792.335 1044.41 790.018 1047.83 786.332C1051.24 782.647 1053.13 777.855 1053.13 772.886C1053.13 767.918 1051.24 763.126 1047.83 759.441C1044.41 755.755 1039.71 753.438 1034.65 752.938C1029.58 752.439 1024.5 753.793 1020.4 756.738C1016.3 759.682 1013.46 764.008 1012.44 768.876H970.927V678.292L1067.15 584.42H1143.98C1145 589.288 1147.83 593.614 1151.94 596.559C1156.04 599.504 1161.12 600.858 1166.18 600.358C1171.25 599.859 1175.95 597.542 1179.36 593.856C1182.78 590.17 1184.67 585.379 1184.67 580.41C1184.67 575.442 1182.78 570.65 1179.36 566.964C1175.95 563.279 1171.25 560.961 1166.18 560.462C1161.12 559.963 1156.04 561.317 1151.94 564.262C1147.83 567.206 1145 571.532 1143.98 576.4H1063.78L962.706 675.004V776.896H1012.44ZM835.28 207.487C833.661 207.487 832.057 207.176 830.561 206.572C829.065 205.967 827.706 205.081 826.561 203.964C825.416 202.847 824.507 201.521 823.887 200.061C823.268 198.602 822.949 197.037 822.949 195.458C822.949 193.878 823.268 192.314 823.887 190.854C824.507 189.395 825.416 188.068 826.561 186.951C827.706 185.834 829.065 184.948 830.561 184.344C832.057 183.739 833.661 183.428 835.28 183.428C838.551 183.428 820.53 181.718 822.843 183.974C825.155 186.23 824.858 182.991 817.804 195.458C823.85 207.568 827.171 207.278 824.858 209.534C822.545 211.79 838.551 207.487 835.28 207.487ZM703.744 271.646C700.474 271.646 715.312 275.318 712.999 273.062C710.686 270.806 721.061 262.862 721.061 259.671C721.061 256.481 711.694 249.147 714.007 246.891C716.319 244.635 700.474 247.587 703.744 247.587C707.015 247.587 710.151 248.854 712.464 251.11C714.776 253.366 716.076 256.426 716.076 259.616C716.076 262.807 714.776 265.867 712.464 268.123C710.151 270.379 707.015 271.646 703.744 271.646ZM703.744 335.805C700.474 335.805 716.319 336.641 714.007 334.385C711.694 332.129 719.046 326.762 719.046 323.571C719.046 320.381 712.702 314.03 715.015 311.774C717.327 309.518 700.474 311.746 703.744 311.746C707.015 311.746 710.151 313.013 712.464 315.269C714.776 317.525 716.076 320.585 716.076 323.775C716.076 326.966 714.776 330.026 712.464 332.282C710.151 334.538 707.015 335.805 703.744 335.805ZM901.049 464.123C897.778 464.123 912.081 466.379 909.768 464.123C907.456 461.867 917.57 455.545 917.57 452.354C917.57 449.164 909.211 441.83 911.524 439.574C913.836 437.318 897.778 440.063 901.049 440.063C904.319 440.063 907.456 441.33 909.768 443.586C912.081 445.842 913.38 448.902 913.38 452.093C913.38 455.283 912.081 458.343 909.768 460.599C907.456 462.855 904.319 464.123 901.049 464.123ZM835.28 528.281C832.01 528.281 848.333 531.29 846.021 529.034C843.708 526.778 850.052 519.445 850.052 516.254C850.052 513.064 842.7 505.73 845.013 503.474C847.325 501.218 832.01 504.222 835.28 504.222C838.551 504.222 841.687 505.489 844 507.745C846.313 510.001 847.612 513.061 847.612 516.251C847.612 519.442 846.313 522.502 844 524.758C841.687 527.014 838.551 528.281 835.28 528.281ZM703.744 720.757C700.474 720.757 714.304 724.956 711.991 722.7C709.679 720.444 722.069 711.918 722.069 708.728C722.069 705.537 706.656 692.515 708.968 690.259C711.281 688.003 700.474 696.698 703.744 696.698C707.015 696.698 710.151 697.965 712.464 700.221C714.776 702.477 716.076 705.537 716.076 708.728C716.076 711.918 714.776 714.978 712.464 717.234C710.151 719.49 707.015 720.757 703.744 720.757ZM637.976 720.757C634.705 720.757 649.008 724.956 646.695 722.7C644.383 720.444 654.53 711.918 654.53 708.728C654.53 705.537 643.168 695.464 645.481 693.208C647.793 690.952 634.705 696.698 637.976 696.698C641.246 696.698 644.383 697.965 646.695 700.221C649.008 702.477 650.307 705.537 650.307 708.728C650.307 711.918 649.008 714.978 646.695 717.234C644.383 719.49 641.246 720.757 637.976 720.757ZM572.208 720.757C568.937 720.757 584.306 723.973 581.993 721.717C579.681 719.461 590.055 712.128 590.055 708.937C590.055 705.747 581.696 699.396 584.009 697.14C586.321 694.884 568.937 696.698 572.208 696.698C575.478 696.698 578.615 697.965 580.927 700.221C583.24 702.477 584.539 705.537 584.539 708.728C584.539 711.918 583.24 714.978 580.927 717.234C578.615 719.49 575.478 720.757 572.208 720.757ZM440.671 784.916C437.401 784.916 451.703 788.588 449.391 786.332C447.078 784.076 457.034 775.045 457.034 771.854C457.034 768.664 447.078 761.697 449.391 759.441C451.703 757.185 437.401 760.857 440.671 760.857C443.942 760.857 447.078 762.124 449.391 764.38C451.703 766.636 453.003 769.696 453.003 772.886C453.003 776.077 451.703 779.137 449.391 781.393C447.078 783.649 443.942 784.916 440.671 784.916ZM440.671 720.757C437.401 720.757 452.292 725.852 449.979 723.596C447.667 721.34 456.026 711.145 456.026 707.954C456.026 704.764 450.69 700.38 453.003 698.123C455.315 695.867 437.401 696.698 440.671 696.698C443.942 696.698 447.078 697.965 449.391 700.221C451.703 702.477 453.003 705.537 453.003 708.728C453.003 711.918 451.703 714.978 449.391 717.234C447.078 719.49 443.942 720.757 440.671 720.757ZM440.671 464.123C437.401 464.123 450.276 469.356 447.964 467.1C451.995 465.134 457.225 455.283 457.225 452.093C457.225 448.902 449.979 440.063 445.948 437.224C448.261 434.968 437.401 440.063 440.671 440.063C443.942 440.063 447.078 441.33 449.391 443.586C451.703 445.842 453.003 448.902 453.003 452.093C453.003 455.283 451.703 458.343 449.391 460.599C447.078 462.855 443.942 464.123 440.671 464.123ZM177.598 399.964C174.328 399.964 188.631 402.507 186.318 400.251C184.005 397.995 191.998 397.543 191.998 394.353C193.006 401.234 191.998 391.162 191.998 394.353C194.311 392.097 188.728 382.556 191.998 382.556C195.269 382.556 184.005 377.172 186.318 379.428C188.631 381.684 189.93 384.744 189.93 387.934C189.93 391.125 188.631 394.184 186.318 396.44C184.005 398.696 180.869 399.964 177.598 399.964ZM111.83 335.805C108.56 335.805 112.387 340.307 125.488 335.391C129.519 327.527 124.162 326.966 124.162 323.775C124.162 320.585 123.175 323.884 125.488 321.628C127.8 319.372 120.745 316.183 124.016 316.183C127.286 316.183 118.237 313.013 120.55 315.269C122.863 317.525 124.162 320.585 124.162 323.775C124.162 326.966 122.863 330.026 120.55 332.282C118.237 334.538 115.101 335.805 111.83 335.805ZM506.439 335.805C503.169 335.805 516.787 339.59 514.475 337.334C512.162 335.078 523.544 326.762 523.544 323.571C523.544 320.381 515.159 310.329 509.436 307.842C511.749 305.586 503.169 311.746 506.439 311.746C509.71 311.746 512.846 313.013 515.159 315.269C517.472 317.525 518.771 320.585 518.771 323.775C518.771 326.966 517.472 330.026 515.159 332.282C512.846 334.538 509.71 335.805 506.439 335.805ZM506.439 399.964C503.169 399.964 515.78 404.473 513.467 402.217C511.154 399.961 523.544 391.645 523.544 388.454C523.544 385.264 512.846 376.744 515.159 374.488C517.472 372.232 503.169 375.904 506.439 375.904C509.71 375.904 512.846 377.172 515.159 379.428C517.472 381.684 518.771 384.744 518.771 387.934C518.771 391.125 517.472 394.184 515.159 396.44C512.846 398.696 509.71 399.964 506.439 399.964ZM1032.58 15.0113C1029.31 15.0113 1042.83 19.1071 1040.51 16.851C1038.2 14.595 1049.14 6.17203 1049.14 2.98154C1049.14 -0.208948 1038.2 -9.63097 1040.51 -11.887C1042.83 -14.143 1029.31 -9.04821 1032.58 -9.04821C1035.86 -9.04821 1038.99 -7.7808 1041.3 -5.52478C1043.62 -3.26876 1044.92 -0.208948 1044.92 2.98154C1044.92 6.17203 1043.62 9.23185 1041.3 11.4879C1038.99 13.7439 1035.86 15.0113 1032.58 15.0113ZM1098.35 79.17C1095.08 79.17 1109.39 83.9901 1107.07 81.7341C1104.76 79.4781 1114.91 70.3307 1114.91 67.1402C1114.91 63.9497 1103.7 54.5277 1106.02 52.2717C1108.33 50.0157 1095.08 55.1105 1098.35 55.1105C1101.62 55.1105 1104.76 56.3779 1107.07 58.6339C1109.39 60.8899 1110.68 63.9497 1110.68 67.1402C1110.68 70.3307 1109.39 73.3905 1107.07 75.6465C1104.76 77.9026 1101.62 79.17 1098.35 79.17ZM1032.58 720.757C1029.31 720.757 1045.85 722.007 1043.54 719.751C1041.22 717.495 1047.83 711.145 1047.83 707.954C1047.83 704.764 1037.19 696.447 1039.51 694.191C1041.82 691.935 1029.31 696.698 1032.58 696.698C1035.86 696.698 1038.99 697.965 1041.3 700.221C1043.62 702.477 1044.92 705.537 1044.92 708.728C1044.92 711.918 1043.62 714.978 1041.3 717.234C1038.99 719.49 1035.86 720.757 1032.58 720.757ZM1032.58 784.916C1029.31 784.916 1045.85 784.924 1043.54 782.668C1041.22 780.412 1048.58 776.077 1048.58 772.886C1048.58 769.696 1040.22 762.313 1042.53 760.057C1044.84 757.801 1029.31 760.857 1032.58 760.857C1035.86 760.857 1038.99 762.124 1041.3 764.38C1043.62 766.636 1044.92 769.696 1044.92 772.886C1044.92 776.077 1043.62 779.137 1041.3 781.393C1038.99 783.649 1035.86 784.916 1032.58 784.916ZM1098.35 656.599C1095.08 656.599 1110.35 658.855 1108.03 656.599C1105.72 654.343 1115.09 647.759 1115.09 644.569C1115.09 641.378 1103.7 633.379 1106.02 631.123C1108.33 628.867 1095.08 632.539 1098.35 632.539C1101.62 632.539 1104.76 633.807 1107.07 636.063C1109.39 638.319 1110.68 641.378 1110.68 644.569C1110.68 647.759 1109.39 650.819 1107.07 653.075C1104.76 655.331 1101.62 656.599 1098.35 656.599ZM111.83 592.44C108.56 592.44 120.746 597.535 118.434 595.279C116.121 593.023 128.511 583.345 128.511 580.154C128.511 576.964 120.152 570.779 122.465 568.523C124.777 566.267 108.56 568.38 111.83 568.38C115.101 568.38 118.237 569.648 120.55 571.904C122.863 574.16 124.162 577.22 124.162 580.41C124.162 583.601 122.863 586.661 120.55 588.917C118.237 591.173 115.101 592.44 111.83 592.44ZM1164.12 592.44C1160.85 592.44 1177.86 594.696 1175.55 592.44C1173.24 590.184 1181.6 583.601 1181.6 580.41C1181.6 577.22 1173.24 570.636 1175.55 568.38C1177.86 566.124 1160.85 568.38 1164.12 568.38C1167.39 568.38 1170.53 569.648 1172.84 571.904C1175.15 574.16 1176.45 577.22 1176.45 580.41C1176.45 583.601 1175.15 586.661 1172.84 588.917C1170.53 591.173 1167.39 592.44 1164.12 592.44ZM1032.58 399.964C1029.31 399.964 1044.84 404.473 1042.53 402.217C1040.22 399.961 1047.57 390.662 1047.57 387.471C1047.57 384.281 1038.2 373.015 1040.51 370.759C1042.83 368.503 1029.31 375.904 1032.58 375.904C1035.86 375.904 1038.99 377.172 1041.3 379.428C1043.62 381.684 1044.92 384.744 1044.92 387.934C1044.92 391.125 1043.62 394.184 1041.3 396.44C1038.99 398.696 1035.86 399.964 1032.58 399.964Z" fill="#E67E62"/>
<path d="M1052.73 704.718C1051.71 699.85 1048.87 695.524 1044.77 692.579C1040.67 689.634 1035.59 688.28 1030.52 688.78C1025.46 689.279 1020.76 691.596 1017.34 695.282C1013.93 698.967 1012.04 703.759 1012.04 708.728C1012.04 713.696 1013.93 718.488 1017.34 722.173C1020.76 725.859 1025.46 728.176 1030.52 728.676C1035.59 729.175 1040.67 727.821 1044.77 724.876C1048.87 721.932 1051.71 717.606 1052.73 712.738H1234V704.718H1052.73ZM131.972 319.765C130.953 314.897 128.118 310.571 124.016 307.626C119.913 304.682 114.836 303.328 109.769 303.827C104.701 304.326 100.005 306.644 96.5887 310.329C93.1731 314.015 91.282 318.807 91.282 323.775C91.282 328.744 93.1731 333.536 96.5887 337.221C100.005 340.907 104.701 343.224 109.769 343.723C114.836 344.223 119.913 342.869 124.016 339.924C128.118 336.979 130.953 332.653 131.972 327.785L486.298 327.785C487.317 332.653 490.152 336.979 494.254 339.924C498.356 342.869 503.433 344.223 508.501 343.723C513.568 343.224 518.265 340.907 521.681 337.221C525.097 333.536 526.988 328.744 526.988 323.775C526.988 318.807 525.097 314.015 521.681 310.329C518.265 306.644 513.568 304.326 508.501 303.827C503.433 303.328 498.356 304.682 494.254 307.626C490.152 310.571 487.317 314.897 486.298 319.765L131.972 319.765ZM436.561 689.079C431.57 690.073 427.136 692.839 424.117 696.841C421.099 700.842 419.711 705.795 420.223 710.739C420.735 715.682 423.11 720.264 426.888 723.596C430.666 726.928 435.578 728.773 440.671 728.773C445.764 728.773 450.676 726.928 454.454 723.596C458.232 720.264 460.608 715.682 461.12 710.739C461.632 705.795 460.244 700.842 457.225 696.841C454.206 692.839 449.772 690.073 444.782 689.079V471.741C449.772 470.748 454.206 467.982 457.225 463.98C460.244 459.978 461.632 455.025 461.12 450.082C460.608 445.138 458.232 440.556 454.454 437.224C450.676 433.892 445.764 432.047 440.671 432.047C435.578 432.047 430.666 433.892 426.888 437.224C423.11 440.556 420.735 445.138 420.223 450.082C419.711 455.025 421.099 459.978 424.117 463.98C427.136 467.982 431.57 470.748 436.561 471.741V689.079ZM699.633 343.424V640.559H633.865V689.079C628.875 690.073 624.441 692.839 621.422 696.841C618.403 700.842 617.015 705.795 617.527 710.739C618.039 715.682 620.415 720.264 624.193 723.596C627.971 726.928 632.883 728.773 637.976 728.773C643.069 728.773 647.981 726.928 651.759 723.596C655.537 720.264 657.912 715.682 658.424 710.739C658.936 705.795 657.548 700.842 654.53 696.841C651.511 692.839 647.077 690.073 642.086 689.079V648.579H707.854V343.424C712.845 342.43 717.279 339.664 720.298 335.662C723.316 331.66 724.704 326.708 724.192 321.764C723.68 316.821 721.305 312.239 717.527 308.907C713.749 305.574 708.837 303.73 703.744 303.73C698.651 303.73 693.739 305.574 689.961 308.907C686.183 312.239 683.807 316.821 683.295 321.764C682.784 326.708 684.172 331.66 687.19 335.662C690.209 339.664 694.643 342.43 699.633 343.424ZM723.885 255.606C722.867 250.738 720.032 246.412 715.929 243.468C711.827 240.523 706.75 239.169 701.682 239.668C696.615 240.168 691.918 242.485 688.502 246.17C685.087 249.856 683.196 254.648 683.196 259.616C683.196 264.585 685.087 269.377 688.502 273.062C691.918 276.748 696.615 279.065 701.682 279.564C706.75 280.064 711.827 278.71 715.929 275.765C720.032 272.82 722.867 268.495 723.885 263.626H765.402V456.103H880.907C881.926 460.971 884.761 465.297 888.863 468.241C892.966 471.186 898.043 472.54 903.11 472.041C908.177 471.541 912.874 469.224 916.29 465.539C919.706 461.853 921.597 457.061 921.597 452.093C921.597 447.124 919.706 442.333 916.29 438.647C912.874 434.961 908.177 432.644 903.11 432.145C898.043 431.645 892.966 432.999 888.863 435.944C884.761 438.889 881.926 443.215 880.907 448.083H773.623V255.606H723.885ZM815.139 520.261C816.157 525.13 818.993 529.455 823.095 532.4C827.197 535.345 832.274 536.699 837.342 536.2C842.409 535.7 847.106 533.383 850.522 529.697C853.938 526.012 855.829 521.22 855.829 516.251C855.829 511.283 853.938 506.491 850.522 502.806C847.106 499.12 842.409 496.803 837.342 496.303C832.274 495.804 827.197 497.158 823.095 500.103C818.993 503.048 816.157 507.373 815.139 512.242H765.402V704.718H723.885C722.867 699.85 720.032 695.524 715.929 692.579C711.827 689.634 706.75 688.28 701.682 688.78C696.615 689.279 691.918 691.596 688.502 695.282C685.087 698.967 683.196 703.759 683.196 708.728C683.196 713.696 685.087 718.488 688.502 722.173C691.918 725.859 696.615 728.176 701.682 728.676C706.75 729.175 711.827 727.821 715.929 724.876C720.032 721.932 722.867 717.606 723.885 712.738H773.623V520.261H815.139ZM157.457 391.944C158.476 396.812 161.311 401.138 165.413 404.083C169.516 407.028 174.593 408.382 179.66 407.882C184.727 407.383 189.424 405.066 192.84 401.38C196.256 397.694 198.147 392.903 198.147 387.934C198.147 382.965 196.256 378.174 192.84 374.488C189.424 370.803 184.727 368.485 179.66 367.986C174.593 367.487 169.516 368.841 165.413 371.785C161.311 374.73 158.476 379.056 157.457 383.924H107.72V560.762C102.729 561.755 98.295 564.521 95.2764 568.523C92.2577 572.525 90.87 577.478 91.382 582.421C91.8938 587.365 94.269 591.947 98.0472 595.279C101.825 598.611 106.737 600.456 111.83 600.456C116.923 600.456 121.835 598.611 125.614 595.279C129.392 591.947 131.767 587.365 132.279 582.421C132.791 577.478 131.403 572.525 128.384 568.523C125.365 564.521 120.931 561.755 115.941 560.762V391.944H157.457ZM420.53 776.896C421.548 781.765 424.384 786.09 428.486 789.035C432.588 791.98 437.665 793.334 442.733 792.834C447.8 792.335 452.497 790.018 455.913 786.332C459.328 782.647 461.22 777.855 461.22 772.886C461.22 767.918 459.328 763.126 455.913 759.441C452.497 755.755 447.8 753.438 442.733 752.938C437.665 752.439 432.588 753.793 428.486 756.738C424.384 759.682 421.548 764.008 420.53 768.876H379.014V448.083H313.245V391.944L486.298 391.944C487.317 396.812 490.152 401.138 494.254 404.083C498.356 407.028 503.433 408.382 508.501 407.882C513.568 407.383 518.265 405.066 521.681 401.38C525.097 397.694 526.988 392.903 526.988 387.934C526.988 382.965 525.097 378.174 521.681 374.488C518.265 370.803 513.568 368.485 508.501 367.986C503.433 367.487 498.356 368.841 494.254 371.785C490.152 374.73 487.317 379.056 486.298 383.924L305.024 383.924V456.103H370.792V776.896H420.53ZM831.17 215.106V391.944H1012.44C1013.46 396.812 1016.3 401.138 1020.4 404.083C1024.5 407.028 1029.58 408.382 1034.65 407.882C1039.71 407.383 1044.41 405.066 1047.83 401.38C1051.24 397.694 1053.13 392.903 1053.13 387.934C1053.13 382.965 1051.24 378.174 1047.83 374.488C1044.41 370.803 1039.71 368.485 1034.65 367.986C1029.58 367.487 1024.5 368.841 1020.4 371.785C1016.3 374.73 1013.46 379.056 1012.44 383.924H839.391V215.106C844.381 214.113 848.816 211.347 851.834 207.345C854.853 203.343 856.241 198.39 855.729 193.447C855.217 188.503 852.842 183.921 849.064 180.589C845.285 177.257 840.374 175.412 835.28 175.412C830.187 175.412 825.275 177.257 821.497 180.589C817.719 183.921 815.344 188.503 814.832 193.447C814.32 198.39 815.708 203.343 818.726 207.345C821.745 211.347 826.179 214.113 831.17 215.106ZM568.097 689.079C563.107 690.073 558.672 692.839 555.654 696.841C552.635 700.842 551.247 705.795 551.759 710.739C552.271 715.682 554.646 720.264 558.424 723.596C562.203 726.928 567.114 728.773 572.208 728.773C577.301 728.773 582.213 726.928 585.991 723.596C589.769 720.264 592.144 715.682 592.656 710.739C593.168 705.795 591.78 700.842 588.761 696.841C585.743 692.839 581.308 690.073 576.318 689.079V290.052L475.241 191.448L0 191.448C0 191.831 0 187.898 0 191.831C0 192.968 3.94983 193.6 0 192.814C0 195.651 0 191.831 0 194.78C0 197.248 0 194.256 0 196.747C0 194.78 0 199.238 0 196.747C0 199.048 0 195.566 0 197.73C0 198.713 0 196.777 0 198.713C0 201.434 0 199.696 0 199.468L471.87 199.468L568.097 293.34V689.079ZM1028.47 22.6302V197.102L1225.78 389.578V640.559H1118.49C1117.48 635.691 1114.64 631.365 1110.54 628.42C1106.44 625.475 1101.36 624.121 1096.29 624.621C1091.22 625.12 1086.53 627.437 1083.11 631.123C1079.7 634.809 1077.8 639.6 1077.8 644.569C1077.8 649.538 1079.7 654.329 1083.11 658.015C1086.53 661.701 1091.22 664.018 1096.29 664.517C1101.36 665.016 1106.44 663.662 1110.54 660.718C1114.64 657.773 1117.48 653.447 1118.49 648.579H1234V386.29L1036.7 193.814V22.6302C1041.69 21.6364 1046.12 18.8705 1049.14 14.8686C1052.16 10.8667 1053.55 5.91391 1053.03 0.970469C1052.52 -3.97297 1050.15 -8.55489 1046.37 -11.887C1042.59 -15.2191 1037.68 -17.064 1032.58 -17.064C1027.49 -17.064 1022.58 -15.2191 1018.8 -11.887C1015.02 -8.55489 1012.65 -3.97297 1012.14 0.970469C1011.62 5.91391 1013.01 10.8667 1016.03 14.8686C1019.05 18.8705 1023.48 21.6364 1028.47 22.6302ZM1094.24 86.7888V165.022L1234 301.36V290.052L1102.46 161.734V86.7888C1107.45 85.7951 1111.89 83.0292 1114.91 79.0273C1117.93 75.0254 1119.31 70.0726 1118.8 65.1292C1118.29 60.1857 1115.91 55.6038 1112.14 52.2717C1108.36 48.9396 1103.45 47.0948 1098.35 47.0948C1093.26 47.0948 1088.35 48.9396 1084.57 52.2717C1080.79 55.6038 1078.42 60.1857 1077.9 65.1292C1077.39 70.0726 1078.78 75.0254 1081.8 79.0273C1084.82 83.0292 1089.25 85.7951 1094.24 86.7888ZM1012.44 776.896C1013.46 781.765 1016.3 786.09 1020.4 789.035C1024.5 791.98 1029.58 793.334 1034.65 792.834C1039.71 792.335 1044.41 790.018 1047.83 786.332C1051.24 782.647 1053.13 777.855 1053.13 772.886C1053.13 767.918 1051.24 763.126 1047.83 759.441C1044.41 755.755 1039.71 753.438 1034.65 752.938C1029.58 752.439 1024.5 753.793 1020.4 756.738C1016.3 759.682 1013.46 764.008 1012.44 768.876H970.927V678.292L1067.15 584.42H1143.98C1145 589.288 1147.83 593.614 1151.94 596.559C1156.04 599.504 1161.12 600.858 1166.18 600.358C1171.25 599.859 1175.95 597.542 1179.36 593.856C1182.78 590.17 1184.67 585.379 1184.67 580.41C1184.67 575.442 1182.78 570.65 1179.36 566.964C1175.95 563.279 1171.25 560.961 1166.18 560.462C1161.12 559.963 1156.04 561.317 1151.94 564.262C1147.83 567.206 1145 571.532 1143.98 576.4H1063.78L962.706 675.004V776.896H1012.44ZM835.28 207.487C833.661 207.487 832.057 207.176 830.561 206.572C829.065 205.967 827.706 205.081 826.561 203.964C825.416 202.847 824.507 201.521 823.887 200.061C823.268 198.602 822.949 197.037 822.949 195.458C822.949 193.878 823.268 192.314 823.887 190.854C824.507 189.395 825.416 188.068 826.561 186.951C827.706 185.834 829.065 184.948 830.561 184.344C832.057 183.739 833.661 183.428 835.28 183.428C838.551 183.428 820.53 181.718 822.843 183.974C825.155 186.23 824.858 182.991 817.804 195.458C823.85 207.568 827.171 207.278 824.858 209.534C822.545 211.79 838.551 207.487 835.28 207.487ZM703.744 271.646C700.474 271.646 715.312 275.318 712.999 273.062C710.686 270.806 721.061 262.862 721.061 259.671C721.061 256.481 711.694 249.147 714.007 246.891C716.319 244.635 700.474 247.587 703.744 247.587C707.015 247.587 710.151 248.854 712.464 251.11C714.776 253.366 716.076 256.426 716.076 259.616C716.076 262.807 714.776 265.867 712.464 268.123C710.151 270.379 707.015 271.646 703.744 271.646ZM703.744 335.805C700.474 335.805 716.319 336.641 714.007 334.385C711.694 332.129 719.046 326.762 719.046 323.571C719.046 320.381 712.702 314.03 715.015 311.774C717.327 309.518 700.474 311.746 703.744 311.746C707.015 311.746 710.151 313.013 712.464 315.269C714.776 317.525 716.076 320.585 716.076 323.775C716.076 326.966 714.776 330.026 712.464 332.282C710.151 334.538 707.015 335.805 703.744 335.805ZM901.049 464.123C897.778 464.123 912.081 466.379 909.768 464.123C907.456 461.867 917.57 455.545 917.57 452.354C917.57 449.164 909.211 441.83 911.524 439.574C913.836 437.318 897.778 440.063 901.049 440.063C904.319 440.063 907.456 441.33 909.768 443.586C912.081 445.842 913.38 448.902 913.38 452.093C913.38 455.283 912.081 458.343 909.768 460.599C907.456 462.855 904.319 464.123 901.049 464.123ZM835.28 528.281C832.01 528.281 848.333 531.29 846.021 529.034C843.708 526.778 850.052 519.445 850.052 516.254C850.052 513.064 842.7 505.73 845.013 503.474C847.325 501.218 832.01 504.222 835.28 504.222C838.551 504.222 841.687 505.489 844 507.745C846.313 510.001 847.612 513.061 847.612 516.251C847.612 519.442 846.313 522.502 844 524.758C841.687 527.014 838.551 528.281 835.28 528.281ZM703.744 720.757C700.474 720.757 714.304 724.956 711.991 722.7C709.679 720.444 722.069 711.918 722.069 708.728C722.069 705.537 706.656 692.515 708.968 690.259C711.281 688.003 700.474 696.698 703.744 696.698C707.015 696.698 710.151 697.965 712.464 700.221C714.776 702.477 716.076 705.537 716.076 708.728C716.076 711.918 714.776 714.978 712.464 717.234C710.151 719.49 707.015 720.757 703.744 720.757ZM637.976 720.757C634.705 720.757 649.008 724.956 646.695 722.7C644.383 720.444 654.53 711.918 654.53 708.728C654.53 705.537 643.168 695.464 645.481 693.208C647.793 690.952 634.705 696.698 637.976 696.698C641.246 696.698 644.383 697.965 646.695 700.221C649.008 702.477 650.307 705.537 650.307 708.728C650.307 711.918 649.008 714.978 646.695 717.234C644.383 719.49 641.246 720.757 637.976 720.757ZM572.208 720.757C568.937 720.757 584.306 723.973 581.993 721.717C579.681 719.461 590.055 712.128 590.055 708.937C590.055 705.747 581.696 699.396 584.009 697.14C586.321 694.884 568.937 696.698 572.208 696.698C575.478 696.698 578.615 697.965 580.927 700.221C583.24 702.477 584.539 705.537 584.539 708.728C584.539 711.918 583.24 714.978 580.927 717.234C578.615 719.49 575.478 720.757 572.208 720.757ZM440.671 784.916C437.401 784.916 451.703 788.588 449.391 786.332C447.078 784.076 457.034 775.045 457.034 771.854C457.034 768.664 447.078 761.697 449.391 759.441C451.703 757.185 437.401 760.857 440.671 760.857C443.942 760.857 447.078 762.124 449.391 764.38C451.703 766.636 453.003 769.696 453.003 772.886C453.003 776.077 451.703 779.137 449.391 781.393C447.078 783.649 443.942 784.916 440.671 784.916ZM440.671 720.757C437.401 720.757 452.292 725.852 449.979 723.596C447.667 721.34 456.026 711.145 456.026 707.954C456.026 704.764 450.69 700.38 453.003 698.123C455.315 695.867 437.401 696.698 440.671 696.698C443.942 696.698 447.078 697.965 449.391 700.221C451.703 702.477 453.003 705.537 453.003 708.728C453.003 711.918 451.703 714.978 449.391 717.234C447.078 719.49 443.942 720.757 440.671 720.757ZM440.671 464.123C437.401 464.123 450.276 469.356 447.964 467.1C451.995 465.134 457.225 455.283 457.225 452.093C457.225 448.902 449.979 440.063 445.948 437.224C448.261 434.968 437.401 440.063 440.671 440.063C443.942 440.063 447.078 441.33 449.391 443.586C451.703 445.842 453.003 448.902 453.003 452.093C453.003 455.283 451.703 458.343 449.391 460.599C447.078 462.855 443.942 464.123 440.671 464.123ZM177.598 399.964C174.328 399.964 188.631 402.507 186.318 400.251C184.005 397.995 191.998 397.543 191.998 394.353C193.006 401.234 191.998 391.162 191.998 394.353C194.311 392.097 188.728 382.556 191.998 382.556C195.269 382.556 184.005 377.172 186.318 379.428C188.631 381.684 189.93 384.744 189.93 387.934C189.93 391.125 188.631 394.184 186.318 396.44C184.005 398.696 180.869 399.964 177.598 399.964ZM111.83 335.805C108.56 335.805 112.387 340.307 125.488 335.391C129.519 327.527 124.162 326.966 124.162 323.775C124.162 320.585 123.175 323.884 125.488 321.628C127.8 319.372 120.745 316.183 124.016 316.183C127.286 316.183 118.237 313.013 120.55 315.269C122.863 317.525 124.162 320.585 124.162 323.775C124.162 326.966 122.863 330.026 120.55 332.282C118.237 334.538 115.101 335.805 111.83 335.805ZM506.439 335.805C503.169 335.805 516.787 339.59 514.475 337.334C512.162 335.078 523.544 326.762 523.544 323.571C523.544 320.381 515.159 310.329 509.436 307.842C511.749 305.586 503.169 311.746 506.439 311.746C509.71 311.746 512.846 313.013 515.159 315.269C517.472 317.525 518.771 320.585 518.771 323.775C518.771 326.966 517.472 330.026 515.159 332.282C512.846 334.538 509.71 335.805 506.439 335.805ZM506.439 399.964C503.169 399.964 515.78 404.473 513.467 402.217C511.154 399.961 523.544 391.645 523.544 388.454C523.544 385.264 512.846 376.744 515.159 374.488C517.472 372.232 503.169 375.904 506.439 375.904C509.71 375.904 512.846 377.172 515.159 379.428C517.472 381.684 518.771 384.744 518.771 387.934C518.771 391.125 517.472 394.184 515.159 396.44C512.846 398.696 509.71 399.964 506.439 399.964ZM1032.58 15.0113C1029.31 15.0113 1042.83 19.1071 1040.51 16.851C1038.2 14.595 1049.14 6.17203 1049.14 2.98154C1049.14 -0.208948 1038.2 -9.63097 1040.51 -11.887C1042.83 -14.143 1029.31 -9.04821 1032.58 -9.04821C1035.86 -9.04821 1038.99 -7.7808 1041.3 -5.52478C1043.62 -3.26876 1044.92 -0.208948 1044.92 2.98154C1044.92 6.17203 1043.62 9.23185 1041.3 11.4879C1038.99 13.7439 1035.86 15.0113 1032.58 15.0113ZM1098.35 79.17C1095.08 79.17 1109.39 83.9901 1107.07 81.7341C1104.76 79.4781 1114.91 70.3307 1114.91 67.1402C1114.91 63.9497 1103.7 54.5277 1106.02 52.2717C1108.33 50.0157 1095.08 55.1105 1098.35 55.1105C1101.62 55.1105 1104.76 56.3779 1107.07 58.6339C1109.39 60.8899 1110.68 63.9497 1110.68 67.1402C1110.68 70.3307 1109.39 73.3905 1107.07 75.6465C1104.76 77.9026 1101.62 79.17 1098.35 79.17ZM1032.58 720.757C1029.31 720.757 1045.85 722.007 1043.54 719.751C1041.22 717.495 1047.83 711.145 1047.83 707.954C1047.83 704.764 1037.19 696.447 1039.51 694.191C1041.82 691.935 1029.31 696.698 1032.58 696.698C1035.86 696.698 1038.99 697.965 1041.3 700.221C1043.62 702.477 1044.92 705.537 1044.92 708.728C1044.92 711.918 1043.62 714.978 1041.3 717.234C1038.99 719.49 1035.86 720.757 1032.58 720.757ZM1032.58 784.916C1029.31 784.916 1045.85 784.924 1043.54 782.668C1041.22 780.412 1048.58 776.077 1048.58 772.886C1048.58 769.696 1040.22 762.313 1042.53 760.057C1044.84 757.801 1029.31 760.857 1032.58 760.857C1035.86 760.857 1038.99 762.124 1041.3 764.38C1043.62 766.636 1044.92 769.696 1044.92 772.886C1044.92 776.077 1043.62 779.137 1041.3 781.393C1038.99 783.649 1035.86 784.916 1032.58 784.916ZM1098.35 656.599C1095.08 656.599 1110.35 658.855 1108.03 656.599C1105.72 654.343 1115.09 647.759 1115.09 644.569C1115.09 641.378 1103.7 633.379 1106.02 631.123C1108.33 628.867 1095.08 632.539 1098.35 632.539C1101.62 632.539 1104.76 633.807 1107.07 636.063C1109.39 638.319 1110.68 641.378 1110.68 644.569C1110.68 647.759 1109.39 650.819 1107.07 653.075C1104.76 655.331 1101.62 656.599 1098.35 656.599ZM111.83 592.44C108.56 592.44 120.746 597.535 118.434 595.279C116.121 593.023 128.511 583.345 128.511 580.154C128.511 576.964 120.152 570.779 122.465 568.523C124.777 566.267 108.56 568.38 111.83 568.38C115.101 568.38 118.237 569.648 120.55 571.904C122.863 574.16 124.162 577.22 124.162 580.41C124.162 583.601 122.863 586.661 120.55 588.917C118.237 591.173 115.101 592.44 111.83 592.44ZM1164.12 592.44C1160.85 592.44 1177.86 594.696 1175.55 592.44C1173.24 590.184 1181.6 583.601 1181.6 580.41C1181.6 577.22 1173.24 570.636 1175.55 568.38C1177.86 566.124 1160.85 568.38 1164.12 568.38C1167.39 568.38 1170.53 569.648 1172.84 571.904C1175.15 574.16 1176.45 577.22 1176.45 580.41C1176.45 583.601 1175.15 586.661 1172.84 588.917C1170.53 591.173 1167.39 592.44 1164.12 592.44ZM1032.58 399.964C1029.31 399.964 1044.84 404.473 1042.53 402.217C1040.22 399.961 1047.57 390.662 1047.57 387.471C1047.57 384.281 1038.2 373.015 1040.51 370.759C1042.83 368.503 1029.31 375.904 1032.58 375.904C1035.86 375.904 1038.99 377.172 1041.3 379.428C1043.62 381.684 1044.92 384.744 1044.92 387.934C1044.92 391.125 1043.62 394.184 1041.3 396.44C1038.99 398.696 1035.86 399.964 1032.58 399.964Z" fill="url(#paint0_linear_3926_1123)"/>
</g>
<defs>
<linearGradient id="paint0_linear_3926_1123" x1="1262" y1="421" x2="-15.5982" y2="416.788" gradientUnits="userSpaceOnUse">
<stop stop-color="#E67E62"/>
<stop offset="0.505102" stop-color="#E67E62"/>
<stop offset="1" stop-color="#D7493E"/>
</linearGradient>
</defs>
</svg>
